# xmcd CD database file
#
# Track frame offsets:
#	150
#	15985
#	29035
#	50942
#	64275
#	91870
#	104805
#	127650
#	151835
#	173630
#	190562
#	208920
#	225517
#	256467
#	290815
#	306077
#
# Disc length: 4487 seconds
#
# Revision: 4
# Processed by: cddbd v1.5.1PL0 Copyright (c) Steve Scherf et al.
# Submitted via: CDex 1.51
#
DISCID=df118510
DTITLE=Wes Montgomery - Talkin' Verve: Roots Of Acid Jazz
DYEAR=1996
DGENRE=Jazz
TTITLE0=Movin' Wes -- Part 1
TTITLE1=Movin' Wes -- Part 2
TTITLE2=Bumpin' On Sunset
TTITLE3=Green Peppers
TTITLE4=O.G.D. (Aka "Road Song")
TTITLE5=In An Out
TTITLE6=Impressions
TTITLE7=13 (Aka "Death March")
TTITLE8=The Thumb
TTITLE9=Boss City
TTITLE10=Sunny
TTITLE11=Mr. Walker
TTITLE12=Bumpin'
TTITLE13=Willow Weep For Me
TTITLE14=Tequila
TTITLE15=Night Train
EXTD=YEAR: 1996
EXTT0=
EXTT1=
EXTT2=
EXTT3=
EXTT4=
EXTT5=
EXTT6=
EXTT7=
EXTT8=
EXTT9=
EXTT10=
EXTT11=
EXTT12=
EXTT13=
EXTT14=
EXTT15=
PLAYORDER=
